<?xml version="1.0" standalone="no"?>
<!DOCTYPE svg PUBLIC "-//W3C//DTD SVG 20010904//EN"
 "http://www.w3.org/TR/2001/REC-SVG-20010904/DTD/svg10.dtd">
<svg version="1.0" xmlns="http://www.w3.org/2000/svg"
 width="650.000000pt" height="400.000000pt" viewBox="0 0 650.000000 400.000000"
 preserveAspectRatio="xMidYMid meet">

<g transform="translate(0.000000,400.000000) scale(0.100000,-0.100000)"
fill="#000000" stroke="none">
<path d="M164 3958 c-10 -24 -43 -66 -73 -95 l-54 -52 13 -54 c14 -62 2 -119
-31 -140 -13 -8 -19 -23 -19 -46 0 -27 3 -32 12 -23 17 17 64 15 82 -4 24 -24
21 -105 -5 -135 -11 -13 -23 -37 -26 -52 -5 -25 -10 -28 -34 -25 l-29 5 0
-200 0 -199 27 7 c15 3 38 14 52 24 14 10 48 28 74 40 l49 22 53 -26 c44 -23
56 -25 75 -15 24 13 40 9 87 -23 26 -17 33 -29 33 -54 0 -43 -15 -42 -30 2 -7
22 -18 35 -29 35 -9 0 -22 5 -29 12 -17 17 -26 3 -13 -20 6 -10 11 -37 13 -58
3 -45 39 -116 54 -106 5 4 11 20 12 36 3 38 12 48 12 13 0 -14 4 -28 9 -31 5
-3 23 -31 40 -61 26 -47 31 -65 31 -124 0 -71 -13 -101 -24 -56 -4 14 -11 25
-16 25 -12 0 -12 -7 -1 -48 11 -37 1 -41 -32 -14 -16 12 -21 26 -19 50 3 31 2
32 -35 31 -30 0 -34 -2 -18 -9 11 -5 15 -9 9 -9 -7 -1 -12 -11 -13 -23 0 -13
-4 -44 -7 -71 -4 -29 -2 -53 5 -61 8 -9 8 -22 0 -45 -6 -17 -9 -41 -6 -51 3
-11 -4 -37 -14 -58 l-20 -37 2 60 c1 33 1 69 1 79 -2 19 -2 19 -16 1 -12 -16
-14 -12 -20 42 -4 33 -4 67 0 76 16 43 -32 105 -60 77 -6 -6 -11 -16 -11 -23
0 -7 -9 -12 -20 -12 -13 0 -19 -6 -17 -18 4 -21 -11 -22 -28 -2 -11 14 -15 12
-28 -16 -14 -29 -14 -34 1 -61 9 -16 17 -36 17 -44 0 -8 5 -13 11 -11 7 1 16
-13 21 -30 7 -28 14 -34 47 -39 38 -6 64 -38 38 -47 -8 -2 -5 -11 7 -23 19
-19 19 -19 -20 -24 -31 -5 -42 -2 -56 15 -10 11 -18 28 -18 37 0 9 -5 20 -11
23 -6 4 -8 13 -5 21 3 8 -1 14 -9 14 -8 0 -15 8 -15 19 0 14 -6 17 -25 13 -23
-4 -25 -1 -25 32 0 22 -4 35 -10 31 -6 -4 -10 8 -10 30 0 32 3 36 20 30 14 -5
20 -2 20 9 0 16 -10 20 -44 16 -18 -2 -18 -1 0 23 11 14 40 40 66 57 37 25 55
31 82 28 20 -2 36 0 36 6 0 14 -76 83 -111 101 -26 14 -38 14 -85 4 l-54 -12
0 -124 c0 -101 3 -125 15 -129 19 -8 19 -33 0 -40 -13 -5 -15 -79 -14 -588 1
-319 4 -568 6 -553 4 22 14 32 48 47 25 11 64 37 88 60 l44 40 7 -71 c4 -38
14 -91 22 -117 24 -81 22 -85 -38 -80 -41 3 -65 13 -104 41 -46 33 -53 35 -58
20 -12 -30 -18 -261 -7 -235 10 22 54 32 65 14 6 -10 -37 -97 -59 -122 -13
-14 -15 -79 -15 -448 l0 -432 105 0 c89 0 104 2 99 15 -8 20 29 20 46 0 17
-20 260 -22 260 -2 0 18 19 302 26 381 5 71 26 145 50 183 7 11 22 70 34 130
32 168 42 213 54 222 6 5 40 11 76 13 36 3 78 11 93 19 43 23 195 197 224 257
29 59 70 211 84 312 5 36 13 87 19 114 21 99 24 246 6 316 -10 36 -19 88 -21
117 -5 60 -17 88 -46 103 -16 9 -20 8 -18 -2 3 -15 -18 -68 -26 -68 -3 0 -3
22 1 49 6 43 4 50 -14 60 -26 14 -89 14 -97 1 -4 -6 -11 -7 -18 -3 -6 3 -29 6
-52 4 -31 -1 -52 6 -88 30 -53 35 -96 36 -146 2 -35 -24 -101 -27 -101 -5 0
10 -9 46 -20 81 -11 36 -18 67 -16 69 8 7 73 -27 105 -57 40 -36 53 -38 89
-13 15 10 43 25 62 32 19 7 42 19 51 27 19 16 66 17 71 1 3 -8 15 -4 37 11 27
20 36 22 57 12 32 -14 35 -14 33 2 -1 6 1 29 6 50 6 29 4 42 -9 56 -29 32 -20
73 28 120 l43 42 91 -4 c60 -2 98 -9 114 -19 17 -11 41 -15 77 -13 55 4 76 15
86 45 7 22 57 44 82 36 10 -3 24 -2 32 3 12 8 12 14 2 39 -17 41 -59 52 -83
22 -10 -12 -22 -19 -27 -16 -5 4 -12 2 -16 -4 -8 -13 -55 -13 -55 0 0 6 7 27
16 48 10 23 15 63 15 107 -1 60 3 80 30 135 37 76 47 131 28 147 -8 5 -57 16
-109 22 -68 8 -99 17 -108 29 -11 14 -13 57 -8 217 9 259 22 288 122 272 62
-10 64 -16 64 -159 0 -120 2 -135 27 -190 14 -32 31 -57 37 -55 7 2 15 60 21
144 12 149 24 185 69 202 12 5 34 7 49 4 15 -3 27 -1 27 3 0 17 -39 73 -58 83
-22 12 -34 4 -48 -28 l-10 -25 -42 43 c-45 46 -52 78 -31 125 9 20 9 28 -4 40
-9 9 -24 16 -34 16 -10 1 -29 7 -43 15 -39 22 -46 18 -48 -29 -2 -64 -15 -89
-75 -148 -43 -42 -56 -62 -60 -93 -11 -75 -25 -150 -32 -167 -4 -10 1 -24 14
-37 16 -16 21 -35 23 -83 1 -72 -6 -101 -37 -143 -13 -16 -39 -62 -58 -101
-20 -39 -47 -85 -62 -102 -21 -26 -25 -37 -20 -66 6 -28 3 -36 -14 -46 -17 -9
-22 -8 -27 3 -4 12 -10 10 -27 -7 -30 -30 -97 -129 -97 -143 0 -6 -20 -41 -44
-78 l-43 -66 -32 38 c-17 20 -31 41 -31 45 0 5 -7 8 -16 8 -10 0 -14 -6 -11
-14 5 -12 0 -12 -31 1 -35 15 -58 12 -119 -13 -9 -4 -13 7 -13 38 0 35 -6 50
-25 68 -19 17 -25 34 -25 64 -1 36 -5 44 -39 67 -24 17 -47 46 -65 84 -26 55
-28 57 -59 52 -18 -3 -40 -8 -49 -12 -21 -8 -24 14 -8 46 8 14 21 19 50 19 30
0 42 5 51 21 23 44 28 77 13 96 -8 11 -13 43 -14 81 0 46 -4 62 -14 62 -18 0
-26 22 -26 70 0 34 7 44 77 110 46 44 86 92 100 122 18 37 28 48 46 48 13 0
27 -4 33 -9 5 -5 20 -11 34 -13 18 -2 31 -15 45 -44 15 -31 28 -44 49 -48 48
-10 74 -7 113 14 44 22 126 40 189 40 67 0 74 6 74 61 0 51 -11 60 -48 40 -10
-5 -30 -7 -46 -4 l-29 6 7 83 c3 45 9 89 12 98 6 14 -19 16 -231 16 -236 0
-237 0 -232 -21 9 -32 -12 -69 -40 -69 -12 0 -23 6 -23 13 0 28 -45 57 -88 57
-22 0 -44 5 -47 10 -3 6 -37 10 -74 10 l-68 0 -19 -42z m746 -1439 c0 -18 -2
-19 -15 -9 -8 7 -15 16 -15 21 0 5 7 9 15 9 9 0 15 -9 15 -21z m-680 -54 c6
-8 10 -22 8 -32 -3 -14 -8 -11 -21 15 -18 32 -9 44 13 17z m-172 -47 c13 -13
16 -64 5 -71 -18 -11 -53 13 -53 36 0 21 16 47 30 47 3 0 11 -5 18 -12z m425
-225 c-28 -5 -30 -19 -5 -32 13 -7 32 -5 62 5 52 18 67 14 81 -23 8 -22 6 -34
-9 -63 -11 -19 -23 -50 -27 -68 -4 -18 -11 -30 -16 -26 -16 9 -10 68 11 107
24 44 24 47 5 47 -8 0 -15 5 -15 11 0 6 -10 9 -22 7 -19 -2 -26 -14 -39 -63
-13 -51 -17 -56 -23 -37 -5 14 -13 21 -21 18 -15 -5 -25 23 -25 75 0 43 5 49
39 48 24 -2 24 -2 4 -6z m282 -78 c17 -9 45 -29 60 -45 25 -26 36 -30 83 -30
44 0 53 -3 48 -15 -3 -8 -1 -15 4 -15 6 0 10 -5 10 -11 0 -15 -53 -1 -63 17
-14 25 -42 15 -90 -31 -35 -33 -47 -52 -47 -74 0 -25 -6 -31 -35 -41 -27 -9
-35 -17 -35 -36 0 -19 -5 -23 -22 -21 -14 1 -26 -6 -34 -21 -14 -29 -34 -50
-34 -36 0 5 6 18 14 29 7 11 17 31 21 45 9 28 30 58 84 115 20 22 41 46 45 53
7 12 -16 44 -31 41 -23 -4 -32 4 -38 31 -6 26 -10 29 -31 24 -17 -4 -24 -2
-24 8 0 8 3 18 7 21 12 12 74 7 108 -8z m308 -58 c7 -6 19 -21 27 -32 12 -17
11 -17 -10 2 -14 12 -36 26 -50 32 -25 10 -25 10 -2 10 13 1 29 -5 35 -12z
m-573 -111 c0 -8 -4 -18 -10 -21 -5 -3 -10 3 -10 14 0 12 5 21 10 21 6 0 10
-6 10 -14z m-14 -993 c-4 -9 -10 -59 -13 -110 -3 -51 -10 -93 -15 -93 -5 0 -6
30 -1 73 4 39 8 89 8 110 0 24 5 37 14 37 8 0 11 -6 7 -17z m67 -178 c-8 -88
-18 -169 -23 -180 -11 -29 -4 209 9 278 5 32 7 65 4 75 -5 15 -4 15 9 2 13
-13 13 -34 1 -175z m-384 -62 c-1 -34 -2 -35 -9 -13 -11 36 -11 50 0 50 6 0
10 -17 9 -37z m8 -95 c-3 -7 -5 -2 -5 12 0 14 2 19 5 13 2 -7 2 -19 0 -25z
m10 -40 c-3 -8 -6 -5 -6 6 -1 11 2 17 5 13 3 -3 4 -12 1 -19z m10 -40 c-3 -8
-6 -5 -6 6 -1 11 2 17 5 13 3 -3 4 -12 1 -19z m257 -148 c7 -53 -8 -90 -18
-44 -8 38 -5 119 4 102 4 -7 10 -33 14 -58z m-77 24 c-3 -3 -12 -4 -19 -1 -8
3 -5 6 6 6 11 1 17 -2 13 -5z m-32 -154 c4 -6 12 -10 18 -9 23 3 77 -14 88
-27 6 -8 18 -14 26 -14 10 0 13 -6 9 -16 -3 -9 -6 -29 -6 -45 0 -26 -3 -28
-18 -20 -16 8 -20 4 -31 -25 -7 -19 -16 -32 -20 -29 -10 6 -61 -17 -61 -27 0
-13 -37 -9 -47 5 -6 7 -7 36 -3 70 5 51 -2 90 -23 114 -4 5 39 32 50 33 6 0
15 -5 18 -10z"/>
<path d="M1318 3993 c7 -3 16 -2 19 1 4 3 -2 6 -13 5 -11 0 -14 -3 -6 -6z"/>
<path d="M1630 3990 c0 -7 37 -9 104 -6 104 4 114 2 168 -36 18 -13 32 -16 54
-10 45 13 77 0 98 -38 16 -30 17 -41 7 -78 -14 -49 -34 -62 -61 -37 -27 24
-52 15 -75 -28 l-20 -38 20 -15 c15 -11 33 -14 67 -9 37 4 57 1 87 -15 63 -32
93 -79 100 -158 10 -102 35 -134 97 -125 20 3 46 -3 72 -16 42 -21 57 -51 63
-121 5 -57 1 -63 -33 -55 -18 3 -82 10 -143 15 -128 10 -146 3 -180 -68 -22
-48 -42 -59 -61 -35 -13 17 -15 17 -29 -2 -29 -36 -39 -98 -37 -217 1 -65 -2
-118 -6 -118 -17 0 -69 30 -87 50 -13 14 -16 28 -11 54 6 33 5 35 -38 56 -42
20 -47 20 -75 6 -42 -22 -65 -21 -58 3 5 22 -35 67 -51 57 -16 -9 -20 -127 -6
-172 23 -77 20 -106 -12 -139 -16 -17 -43 -37 -60 -44 -32 -12 -32 -12 -37
-104 -3 -60 -15 -126 -34 -192 l-30 -100 29 -3 c20 -2 28 -9 28 -23 0 -28 -27
-35 -51 -13 l-21 19 7 -70 c4 -43 17 -90 32 -121 l25 -51 -17 -79 c-10 -44
-26 -91 -36 -106 -11 -14 -19 -31 -19 -36 0 -6 -23 -35 -51 -66 -28 -30 -55
-70 -60 -88 -9 -36 -39 -72 -93 -113 -31 -23 -34 -29 -23 -46 8 -12 23 -19 43
-19 38 0 88 -51 101 -102 5 -18 8 -127 7 -243 -1 -193 -3 -214 -24 -262 -21
-51 -60 -98 -60 -74 0 7 -11 4 -27 -9 -31 -22 -92 -28 -186 -17 -57 7 -58 6
-51 -16 6 -21 6 -21 -13 -5 -11 10 -23 18 -28 18 -5 0 -16 7 -25 15 -14 13
-19 4 -48 -100 -17 -63 -48 -203 -67 -312 -40 -221 -48 -250 -39 -148 3 39 7
115 9 170 2 55 5 159 8 230 l6 130 -14 -121 c-17 -161 -23 -187 -42 -180 -8 3
-22 6 -32 6 -10 0 -36 16 -59 36 -35 29 -42 32 -43 17 0 -10 -6 -72 -13 -138
-7 -66 -11 -124 -9 -128 3 -5 12 -6 20 -3 14 6 83 -18 83 -28 0 -13 -35 -86
-42 -86 -3 0 -14 8 -24 17 -13 13 -19 14 -22 5 -2 -7 -8 -10 -13 -6 -8 5 -10
-5 -13 -78 l-2 -28 168 0 168 0 1 33 1 32 9 -32 c9 -32 11 -33 67 -33 l58 0
42 88 c23 49 42 92 42 98 0 5 -25 -28 -55 -73 -56 -85 -96 -126 -55 -57 13 21
27 43 32 49 4 5 8 87 8 183 l0 174 -35 -22 -36 -22 6 28 c12 55 50 164 57 164
5 0 8 -26 9 -57 l1 -58 11 43 c7 23 17 46 23 50 6 4 15 23 19 42 4 19 12 41
17 48 12 14 48 16 48 3 0 -23 -40 -134 -54 -150 -11 -12 -17 -53 -22 -160 -8
-159 -1 -172 36 -69 12 35 34 88 48 118 14 30 62 150 107 267 l81 211 12 -39
c17 -54 16 -66 -18 -202 -48 -192 -89 -311 -185 -550 l-44 -107 177 2 176 3
12 58 c16 83 39 101 30 25 -3 -31 -9 -64 -12 -73 -6 -14 2 -16 62 -13 l68 3 8
35 c4 19 8 62 9 96 1 33 8 74 15 90 14 29 14 29 9 -16 -2 -25 -2 -36 1 -25 3
11 11 25 16 30 8 7 9 5 5 -7 -3 -9 -9 -59 -13 -112 l-7 -96 459 0 459 0 -30
24 c-16 14 -48 29 -71 35 -40 10 -40 11 -53 76 -13 63 -9 157 7 181 17 25 59
44 98 44 40 0 74 22 74 48 0 7 4 12 10 12 5 0 30 13 55 29 25 16 66 35 90 42
25 7 45 19 45 26 0 19 -51 41 -85 36 -23 -3 -36 2 -54 21 -21 22 -24 38 -29
119 -4 82 -1 110 26 218 31 123 45 211 57 364 7 91 30 203 46 221 17 21 12
374 -6 426 -20 60 -19 77 10 104 19 17 25 33 25 63 0 30 5 43 19 51 16 8 23 5
39 -17 31 -43 48 -25 54 56 3 43 12 81 23 97 17 26 17 27 -1 19 -11 -4 -26 -7
-34 -6 -8 1 -28 1 -45 0 -99 -6 -132 -2 -178 20 -64 32 -93 77 -114 180 -16
83 -16 83 -34 60 -23 -30 -43 -149 -35 -205 5 -37 1 -51 -29 -102 -20 -32 -48
-71 -64 -86 l-29 -28 -12 22 c-17 31 -4 116 24 167 13 23 27 59 31 81 5 34 3
42 -13 51 -13 7 -21 24 -24 47 -4 33 -1 39 25 53 16 9 50 31 75 48 29 21 49
29 53 22 12 -20 18 6 29 119 13 135 28 182 81 241 23 25 50 57 62 70 30 34 59
41 130 35 42 -4 74 -14 98 -31 30 -20 40 -22 60 -13 35 16 75 -2 100 -45 20
-33 23 -35 60 -29 61 10 72 -5 64 -87 l-7 -68 28 -7 c15 -4 42 -2 60 5 28 10
39 9 69 -5 33 -15 37 -15 70 0 30 15 34 20 29 45 -4 16 2 64 12 105 17 73 17
78 1 106 -13 21 -16 40 -11 70 7 40 6 42 -17 38 -20 -2 -28 -16 -51 -83 -15
-44 -27 -99 -27 -122 -1 -40 -37 -133 -52 -133 -29 0 -53 153 -37 239 7 39 5
48 -14 68 -17 18 -22 34 -20 66 7 114 50 232 95 261 19 12 74 21 113 17 6 -1
18 -17 27 -37 40 -83 136 -164 195 -164 31 0 42 -22 42 -80 0 -64 -14 -83 -66
-94 -38 -9 -73 -44 -110 -115 -16 -30 -35 -63 -41 -75 -24 -41 -22 -51 61
-296 58 -168 72 -189 181 -276 15 -12 16 -14 3 -10 -11 3 -18 -3 -22 -22 -16
-65 -60 -192 -68 -192 -11 0 -10 0 7 50 8 23 15 52 14 64 0 19 -1 19 -11 -4
-5 -14 -16 -38 -23 -55 -13 -29 -14 -29 -14 -5 -1 14 8 55 18 92 25 87 29 130
14 135 -7 3 -18 -8 -24 -23 -5 -16 -15 -32 -22 -36 -8 -4 -10 -41 -9 -111 l3
-105 -31 2 c-16 1 -43 13 -59 27 -17 15 -33 24 -36 21 -3 -3 -5 0 -5 6 0 7 -5
12 -11 12 -6 0 -9 -32 -8 -91 1 -60 -2 -94 -10 -102 -7 -7 -11 -7 -9 -2 1 6
-4 24 -12 42 -11 25 -17 30 -28 20 -11 -9 -14 -6 -12 13 4 47 0 81 -9 76 -19
-12 -20 26 -1 46 11 12 20 30 20 41 0 10 5 28 11 39 7 12 7 24 2 29 -6 6 -15
-7 -23 -33 -11 -36 -14 -40 -21 -23 -10 25 -11 21 -23 -70 -4 -33 -14 -68 -22
-79 -13 -19 -14 -19 -14 11 0 40 -26 69 -46 52 -16 -13 -18 -1 -5 20 11 17 3
43 -10 35 -12 -7 -11 -2 7 41 8 20 11 34 6 31 -6 -3 -16 4 -25 17 -13 20 -14
33 -8 83 0 6 10 21 21 33 19 23 19 23 -4 59 -54 85 -76 114 -76 98 0 -9 -7
-16 -15 -16 -13 0 -26 -33 -41 -108 -6 -32 -34 -46 -34 -17 0 8 -4 15 -10 15
-5 0 -10 6 -10 14 0 8 -6 17 -12 19 -9 4 -9 8 -3 14 6 4 11 31 12 58 2 48 2
49 -12 24 -17 -32 -52 -168 -59 -234 -3 -27 -10 -77 -16 -110 -26 -136 5 -274
86 -388 35 -48 42 -63 24 -52 -6 3 -13 -1 -16 -9 -5 -13 -66 -56 -80 -56 -3 0
-15 21 -26 48 -12 26 -31 61 -43 77 -13 17 -28 47 -35 68 -17 54 -30 45 -28
-20 1 -32 -2 -133 -6 -225 -6 -123 -5 -168 3 -168 6 0 16 -11 21 -24 7 -20 15
-23 47 -21 21 1 48 7 60 13 55 30 160 2 239 -63 l41 -34 48 25 c51 26 94 30
125 14 26 -14 69 -88 90 -158 l18 -57 12 30 c7 17 16 40 21 52 7 19 14 22 41
17 18 -3 45 -15 60 -25 35 -25 60 -24 76 2 8 12 19 18 28 15 11 -4 14 1 12 17
-4 34 12 175 28 242 7 33 14 70 14 83 0 38 -17 24 -30 -25 -7 -27 -17 -53 -21
-59 -5 -6 -4 -26 1 -45 13 -44 13 -92 0 -84 -6 4 -10 -6 -11 -22 -2 -57 -7
-94 -12 -100 -13 -13 -25 10 -21 41 4 35 -16 64 -35 51 -16 -9 -55 31 -47 50
4 13 1 15 -13 10 -14 -4 -21 0 -26 14 -4 13 -11 18 -22 14 -11 -4 -14 -2 -9 5
4 7 2 12 -3 12 -6 0 -11 11 -11 25 0 14 -4 25 -10 25 -5 0 -7 7 -4 15 4 10 0
15 -11 15 -9 0 -13 4 -10 10 11 17 -7 11 -21 -7 -10 -14 -13 -15 -14 -4 0 8 7
23 16 32 15 17 15 18 -5 14 -24 -4 -25 5 -7 58 12 33 12 36 -1 26 -19 -17 -53
-84 -69 -139 l-14 -45 6 50 c6 50 29 105 67 158 16 23 25 27 46 22 17 -4 21
-3 12 3 -18 13 -8 40 29 80 35 36 46 38 119 16 31 -9 68 -13 94 -9 28 4 50 1
67 -9 66 -40 66 -40 99 -15 17 12 27 25 23 28 -5 3 -8 33 -6 66 4 81 6 89 17
96 5 4 13 74 18 155 4 82 8 151 8 154 1 4 118 5 169 1 21 -2 52 -82 52 -136 1
-47 3 -52 40 -77 22 -16 40 -36 40 -46 0 -10 -19 -36 -42 -56 l-41 -37 -27 19
c-19 15 -47 20 -110 23 -82 4 -84 4 -91 -21 -4 -14 -7 -53 -8 -87 -1 -62 -1
-63 27 -63 15 -1 52 -9 82 -19 54 -19 80 -45 80 -83 0 -9 13 -31 29 -48 35
-38 43 -87 30 -178 -10 -67 -19 -93 -19 -53 0 18 -4 22 -20 18 -20 -5 -25 9
-23 61 1 29 -48 0 -53 -32 -3 -22 -52 -68 -59 -56 -8 13 -22 5 -36 -22 -6 -11
-7 -18 -2 -15 5 3 14 -3 21 -14 7 -10 8 -19 3 -19 -5 0 -12 6 -15 13 -3 6 -5
-3 -3 -21 4 -32 3 -32 -15 -12 -24 26 -38 26 -31 0 3 -11 0 -20 -6 -20 -6 0
-11 -6 -11 -13 0 -7 -9 -18 -20 -25 -11 -7 -20 -19 -20 -27 0 -8 -6 -15 -12
-16 -14 -1 35 -18 67 -23 42 -7 73 -26 104 -62 l31 -39 16 23 c8 12 24 22 35
22 58 0 83 -53 82 -175 -1 -69 -9 -104 -57 -254 -31 -95 -56 -185 -56 -200 0
-15 -4 -31 -8 -36 -5 -6 -14 -30 -21 -55 -7 -25 -26 -73 -41 -107 -16 -35 -24
-65 -19 -68 10 -7 12 -78 3 -112 -11 -40 -24 -13 -24 49 0 34 -3 58 -7 54 -5
-4 -8 -68 -8 -142 l0 -134 72 0 c58 0 74 3 83 17 11 17 11 17 6 1 -4 -15 1
-18 29 -18 30 0 34 4 40 32 4 18 11 38 15 43 4 6 15 44 25 85 11 41 22 80 26
85 15 24 84 310 110 457 6 38 15 68 19 68 5 0 11 -39 16 -88 6 -75 3 -106 -21
-222 -15 -74 -31 -155 -35 -180 -4 -25 -13 -61 -19 -80 -12 -38 -14 -120 -5
-169 l7 -31 68 0 68 0 42 60 c23 33 44 60 46 60 5 0 -20 -45 -52 -93 l-17 -27
30 0 c24 0 31 5 37 27 3 14 15 38 26 51 10 14 19 30 19 37 0 7 7 18 15 25 22
18 19 6 -19 -71 l-34 -69 225 0 c201 0 224 2 219 16 -3 9 -9 39 -12 68 -6 46
-3 55 21 84 30 36 50 40 78 14 19 -16 20 -16 9 4 -6 12 -13 60 -15 107 -3 70
0 90 15 109 18 23 18 23 18 -28 0 -34 5 -56 15 -64 11 -9 14 -22 10 -42 -4
-17 -2 -35 5 -43 11 -14 9 -39 -6 -79 -4 -10 15 -37 57 -81 l62 -65 205 0 204
0 -6 107 c-4 60 -9 151 -12 203 -3 52 -7 118 -10 145 -13 154 -18 309 -12 356
13 98 17 139 19 199 1 33 5 60 8 60 3 0 6 64 7 142 0 199 10 336 24 353 6 8 9
19 5 25 -3 5 1 10 9 10 20 0 20 -18 2 -56 -11 -21 -15 -78 -18 -207 l-3 -178
28 -21 c15 -11 27 -26 27 -35 0 -8 12 -28 28 -43 15 -16 36 -39 46 -51 15 -17
21 -19 24 -9 3 8 0 16 -6 18 -20 6 -13 22 8 22 16 0 20 -7 20 -34 0 -23 12
-52 36 -87 20 -30 41 -66 46 -81 12 -34 19 -35 44 -7 38 43 179 107 207 95 7
-2 4 -5 -5 -5 -11 -1 -15 -6 -12 -16 4 -9 1 -15 -7 -15 -28 0 -146 -287 -126
-306 3 -3 10 19 17 48 17 71 58 156 81 169 21 11 23 7 10 -38 l-9 -31 43 29
c24 16 50 29 58 29 13 0 15 23 14 163 0 89 5 205 11 257 7 52 13 107 14 123 3
32 1 31 37 12 27 -14 28 -16 20 -65 -4 -29 -13 -58 -19 -65 -6 -7 -17 -57 -25
-111 -16 -106 -19 -180 -3 -99 5 28 11 60 14 72 2 12 16 36 31 53 21 26 32 31
54 26 19 -3 29 -1 33 10 9 23 7 734 -2 734 -15 0 -82 -51 -92 -70 -15 -28 -24
-25 -39 15 -14 41 -16 41 -57 16 -21 -13 -36 -33 -44 -58 -20 -60 -28 -61 -54
-2 -38 82 -60 176 -60 260 -1 43 -4 75 -8 72 -5 -2 -8 -10 -8 -16 0 -25 -99
-213 -125 -237 l-28 -25 17 35 17 35 -23 -27 c-28 -33 -38 -36 -31 -8 3 12 0
20 -7 20 -7 0 -10 7 -7 15 7 18 -9 30 -17 13 -3 -7 -3 3 0 22 5 33 4 34 -11
16 -15 -19 -15 -19 -15 -1 0 15 -3 16 -12 7 -17 -17 -28 -15 -29 6 0 13 -2 12
-9 -5 -12 -29 -34 -31 -27 -3 4 17 2 20 -14 15 -14 -5 -17 -3 -13 9 5 14 3 14
-21 2 -16 -8 -32 -21 -36 -28 -7 -10 -9 -10 -9 0 0 18 -21 15 -36 -6 -12 -15
-13 -13 -14 19 0 24 -5 39 -16 43 -12 4 -14 13 -10 32 8 30 -1 67 -15 58 -5
-3 -6 -10 -3 -16 4 -7 2 -8 -5 -4 -6 4 -9 16 -6 26 3 11 1 28 -5 40 -13 25
-45 28 -36 2 4 -11 -1 -8 -15 8 l-22 25 6 -25 c3 -14 2 -32 -3 -40 -5 -8 -10
-13 -10 -10 -8 59 -7 89 3 83 7 -3 4 3 -7 15 -10 11 -22 45 -26 74 l-8 53 -1
-59 c-1 -68 -10 -67 -23 1 -11 63 -11 51 -3 191 6 85 5 122 -3 122 -12 0 -23
-91 -27 -227 -3 -140 -3 -143 -20 -143 -10 0 -15 10 -15 30 0 30 -6 47 -45
135 -13 28 -30 73 -39 102 -10 28 -24 57 -33 65 -14 12 -16 9 -10 -27 l6 -40
-10 35 c-6 19 -17 57 -25 83 -15 47 -11 86 8 98 19 12 48 -3 48 -24 0 -27 11
-16 55 57 l34 57 -34 35 c-40 39 -50 42 -65 14 -6 -11 -14 -20 -18 -20 -4 0
-27 18 -51 41 -24 22 -44 39 -46 37 -1 -2 -8 -31 -15 -65 -14 -69 -28 -85 -23
-25 4 33 3 35 -9 17 -12 -18 -13 -16 -18 25 l-5 45 -21 -21 c-14 -14 -21 -35
-23 -69 -2 -43 -12 -64 -31 -65 -3 0 -19 14 -37 30 -40 38 -46 38 -41 0 3 -19
0 -30 -7 -30 -11 0 -15 -12 -16 -53 0 -9 -4 -15 -9 -12 -4 3 -11 -2 -14 -11
-5 -13 -9 -14 -21 -4 -12 10 -18 10 -31 -1 -18 -15 -31 -2 -41 44 -6 28 -23
38 -23 12 0 -9 -9 -15 -22 -16 -13 0 -33 -2 -46 -5 -14 -2 -25 2 -28 11 -4 8
-12 15 -20 15 -13 0 -19 23 -16 63 1 11 -6 21 -18 24 -16 4 -20 14 -20 44 0
28 -4 39 -15 39 -18 0 -19 12 -4 27 15 15 2 53 -17 46 -9 -3 -14 1 -14 13 0 9
3 14 7 10 4 -3 22 8 40 26 19 18 41 33 51 33 21 0 27 64 6 72 -8 3 -14 14 -14
25 0 11 -8 22 -20 25 -11 3 -20 10 -21 17 -2 28 -10 60 -18 70 -5 6 -19 37
-31 69 -27 71 -44 66 -38 -11 3 -36 -1 -76 -12 -111 -9 -31 -16 -71 -14 -89 1
-17 -2 -35 -7 -38 -13 -8 -11 -42 2 -46 7 -2 9 -13 4 -27 -6 -18 -9 -21 -16
-10 -5 8 -9 9 -9 4 0 -6 7 -20 15 -32 11 -15 12 -24 4 -28 -16 -10 -30 8 -36
46 -3 19 -8 39 -12 44 -4 6 -4 26 0 45 3 19 7 28 9 20 3 -20 18 27 19 60 1 19
-1 22 -9 10 -6 -10 -8 20 -5 85 2 55 4 108 4 117 1 9 12 30 26 47 22 25 25 35
17 63 l-9 33 -21 -42 c-12 -22 -24 -61 -28 -85 -4 -23 -15 -68 -24 -98 -10
-30 -21 -76 -25 -103 -4 -26 -11 -50 -15 -52 -5 -3 -29 8 -53 25 -25 16 -51
30 -58 30 -17 0 -86 -63 -123 -112 -29 -39 -52 -46 -88 -27 -16 9 -25 6 -45
-13 l-25 -23 -62 68 c-60 66 -62 67 -117 70 l-57 2 5 35 c9 64 6 62 91 55 65
-6 86 -4 116 10 53 25 142 135 205 255 57 106 92 144 122 135 27 -9 36 16 11
33 -12 8 -22 21 -22 28 0 7 -11 21 -25 30 -27 18 -31 27 -41 98 l-7 49 39 -8
c22 -4 45 -12 52 -17 16 -14 27 -2 36 35 6 26 5 28 -14 22 -12 -4 -35 -1 -51
5 -23 10 -29 19 -29 41 0 24 -4 29 -23 29 -25 0 -57 -31 -57 -55 0 -20 -9 -19
-65 6 -48 21 -59 21 -161 3 -30 -5 -31 -4 -27 20 l5 26 -408 -2 -409 -3 -9
-42 c-5 -24 -13 -43 -17 -43 -5 0 -18 -9 -30 -21 -20 -20 -21 -20 -40 -3 -16
15 -24 16 -38 7 -25 -16 -45 0 -66 50 -9 21 -20 35 -25 32 -6 -4 -13 1 -16 9
-9 24 -94 22 -94 -1 0 -10 -7 -27 -15 -37 -22 -30 -19 -38 35 -93 53 -54 50
-41 35 -160 -4 -34 0 -40 48 -85 l52 -48 0 -102 c0 -93 -3 -109 -29 -166 -21
-46 -42 -74 -75 -98 -79 -61 -108 -57 -158 24 -29 47 -30 49 -11 61 50 31 105
165 61 146 -91 -39 -178 -39 -250 -2 -65 33 -73 59 -73 237 0 121 -3 151 -13
147 -18 -7 -56 52 -64 96 -3 20 -1 49 5 66 10 29 10 31 -14 31 -14 0 -39 -7
-56 -16 -29 -15 -34 -15 -59 0 -23 14 -67 16 -298 16 -177 0 -271 -4 -271 -10z
m2585 -80 c3 -5 1 -10 -4 -10 -6 0 -11 5 -11 10 0 6 2 10 4 10 3 0 8 -4 11
-10z m-523 -167 c23 -20 23 -47 1 -73 -26 -30 -41 -25 -52 18 -14 48 -14 59 2
65 21 9 30 7 49 -10z m748 -653 c0 -13 -1 -13 -10 0 -5 8 -10 22 -10 30 0 13
1 13 10 0 5 -8 10 -22 10 -30z m-3 -52 c-3 -7 -5 -2 -5 12 0 14 2 19 5 13 2
-7 2 -19 0 -25z m-1821 7 c7 -17 -14 -47 -27 -39 -7 4 -7 28 0 52 3 8 23 -1
27 -13z m1821 -102 c-3 -10 -5 -2 -5 17 0 19 2 27 5 18 2 -10 2 -26 0 -35z
m63 -29 c0 -8 -4 -12 -10 -9 -5 3 -10 10 -10 16 0 5 5 9 10 9 6 0 10 -7 10
-16z m-164 -90 c-3 -9 -6 -21 -6 -27 -1 -13 -30 22 -30 35 0 4 9 8 21 8 15 0
19 -4 15 -16z m34 -20 c0 -13 -4 -24 -10 -24 -5 0 -10 14 -10 31 0 17 4 28 10
24 6 -3 10 -17 10 -31z m-2621 -36 c-1 -27 -17 -70 -18 -49 -1 8 -8 22 -17 32
-19 21 -11 39 17 39 13 0 19 -7 18 -22z m3398 -20 c-3 -7 -5 -2 -5 12 0 14 2
19 5 13 2 -7 2 -19 0 -25z m-139 -28 c-1 -30 -13 -40 -21 -17 -5 16 3 47 13
47 5 0 8 -13 8 -30z m205 -18 c20 -22 35 -136 19 -146 -6 -3 -30 3 -54 16 -69
34 -68 34 -53 85 20 65 55 82 88 45z m-443 -6 c0 -3 -4 -8 -10 -11 -5 -3 -10
-1 -10 4 0 6 5 11 10 11 6 0 10 -2 10 -4z m-3030 -52 c0 -11 7 -13 28 -7 44
13 159 6 196 -12 19 -9 40 -15 48 -14 25 5 93 -13 111 -29 11 -10 31 -15 48
-14 18 2 30 -2 33 -10 23 -85 23 -96 0 -150 -13 -29 -23 -64 -24 -78 0 -15
-11 -35 -30 -50 -26 -22 -32 -38 -49 -124 -12 -62 -32 -125 -55 -170 -34 -69
-76 -123 -76 -97 0 8 -5 9 -18 2 -13 -7 -22 -7 -30 1 -7 7 -13 4 -21 -10 -15
-29 -77 -38 -103 -16 -16 15 -22 16 -40 5 -11 -7 -21 -11 -23 -9 -11 11 -45
170 -45 210 0 59 -15 62 -31 6 -6 -24 -14 -37 -16 -30 -9 25 -23 11 -23 -23 0
-24 -5 -35 -15 -35 -9 0 -15 -9 -15 -23 0 -42 -14 -39 -27 5 -19 63 -16 137
11 326 30 204 53 270 107 314 21 17 39 38 39 45 0 8 5 11 10 8 6 -3 10 -13 10
-21z m593 -103 c29 -15 35 -29 14 -37 -10 -3 -12 -20 -9 -59 6 -73 -15 -144
-45 -151 -13 -4 -34 -3 -48 0 -21 5 -24 10 -16 24 5 10 12 43 14 73 8 87 38
176 56 167 3 -2 18 -10 34 -17z m877 -63 c0 -15 -4 -28 -10 -28 -5 0 -10 10
-10 23 0 12 -3 33 -6 47 -5 24 -5 24 10 6 9 -11 16 -32 16 -48z m1248 27 c7
-7 -19 -45 -31 -45 -46 1 -73 30 -50 54 7 7 73 -1 81 -9z m856 -51 c3 -8 2
-12 -4 -9 -6 3 -10 10 -10 16 0 14 7 11 14 -7z m-2111 -64 c-3 -12 -8 -19 -11
-16 -5 6 5 36 12 36 2 0 2 -9 -1 -20z m742 -163 c-1 -56 -2 -132 -3 -169 l-2
-68 -41 0 c-35 0 -40 3 -34 18 4 9 18 48 31 87 27 77 27 113 1 46 -10 -23 -22
-39 -27 -36 -6 3 -10 -1 -10 -9 0 -9 -5 -16 -11 -16 -8 0 -9 -11 -5 -31 l6
-32 -22 28 c-14 18 -21 40 -20 61 2 18 -5 51 -14 74 l-17 42 -14 -27 c-20 -37
-27 -25 -10 17 8 19 18 53 21 74 l7 39 83 2 84 1 -3 -101z m-745 68 c0 -14 -4
-25 -10 -25 -11 0 -14 33 -3 43 11 11 13 8 13 -18z m1457 -17 c-3 -7 -5 -2 -5
12 0 14 2 19 5 13 2 -7 2 -19 0 -25z m102 -48 c3 -3 15 -31 26 -64 38 -116
105 -172 215 -179 l45 -3 -3 -110 c-3 -106 -13 -144 -31 -115 -7 10 -12 8 -25
-10 -18 -27 -21 -80 -5 -96 18 -18 19 -64 4 -94 -8 -14 -11 -29 -8 -33 4 -3 1
-6 -5 -6 -18 0 -40 -81 -57 -213 -15 -121 -15 -128 2 -152 10 -13 25 -25 35
-25 23 0 68 -57 68 -85 0 -34 16 -39 42 -15 13 12 32 26 42 32 16 9 18 7 13
-8 -105 -313 -169 -499 -172 -502 -2 -3 -2 18 2 47 4 33 2 51 -5 51 -6 0 -14
-9 -17 -20 -6 -20 -35 -28 -35 -10 0 6 -4 10 -10 10 -5 0 -10 -15 -11 -32 -1
-18 -4 -44 -8 -58 -7 -23 -8 -23 -41 23 -18 26 -41 47 -52 47 -21 0 -33 38
-24 74 3 14 3 31 0 40 -5 13 -8 13 -19 2 -9 -8 -11 -28 -7 -61 6 -61 -9 -54
-43 18 l-23 51 -17 -59 c-28 -103 -65 -209 -81 -235 l-15 -25 5 27 c4 15 1 30
-5 33 -6 4 -8 14 -4 23 4 12 1 11 -16 -4 l-22 -19 6 35 c13 75 27 208 25 246
0 23 2 45 5 51 4 6 10 55 13 109 4 55 10 106 15 115 4 9 5 26 2 38 -3 14 1 30
13 43 19 21 19 21 0 14 -18 -6 -19 -5 -4 11 8 10 18 26 21 36 6 15 3 16 -13 7
-23 -12 -33 -13 -25 -1 3 5 22 15 41 21 30 10 38 10 45 -1 11 -18 12 -92 0
-85 -5 3 -14 -45 -20 -107 -6 -61 -12 -130 -15 -152 -5 -54 -46 -277 -52 -287
-3 -4 -1 -8 5 -8 13 0 44 86 71 200 13 52 28 98 33 102 10 6 11 125 0 166 -4
18 1 25 28 38 69 32 79 39 79 55 0 21 28 46 63 54 32 8 37 40 7 48 -25 6 -26
34 -2 41 14 5 21 24 31 86 7 44 10 84 7 89 -7 11 42 78 83 114 39 34 39 43 0
51 -49 10 -82 7 -113 -9 -39 -20 -46 -18 -16 4 19 16 24 27 22 60 -2 35 2 46
31 74 18 19 39 48 46 65 17 40 41 49 63 23 21 -27 28 -26 28 3 0 29 -28 36
-141 36 l-79 0 -2 -47 c0 -27 0 -61 1 -78 2 -29 1 -28 -17 10 -19 40 -73 95
-94 95 -5 0 -21 9 -35 20 -18 14 -21 20 -10 20 17 0 26 55 36 239 5 100 8 116
23 116 10 0 23 6 30 13 10 10 14 10 17 0 2 -7 7 -15 10 -18z m-1369 -20 c0 -5
-5 -10 -11 -10 -5 0 -7 5 -4 10 3 6 8 10 11 10 2 0 4 -4 4 -10z m-190 -50 c0
-5 -5 -10 -11 -10 -5 0 -7 5 -4 10 3 6 8 10 11 10 2 0 4 -4 4 -10z m303 -16
c3 -3 3 -13 0 -21 -5 -12 -7 -12 -14 -1 -15 23 -4 40 14 22z m-1103 -94 c0 -5
-4 -10 -10 -10 -5 0 -10 5 -10 10 0 6 5 10 10 10 6 0 10 -4 10 -10z m2768 -82
c7 -9 3 -21 -14 -43 -20 -25 -26 -28 -34 -15 -11 17 -13 54 -3 63 11 11 40 8
51 -5z m1016 -183 c-4 -8 -8 -15 -10 -15 -2 0 -4 7 -4 15 0 8 4 15 10 15 5 0
7 -7 4 -15z m-4480 -35 c20 -22 36 -44 36 -49 0 -18 -19 -21 -28 -5 -7 13 -12
6 -22 -35 -6 -28 -10 -57 -7 -65 5 -14 -55 -81 -64 -71 -3 2 -2 35 2 72 5 37
8 93 8 124 1 84 19 91 75 29z m4226 37 c0 -2 -10 -12 -22 -23 l-23 -19 19 23
c18 21 26 27 26 19z m-3011 -76 c11 -27 21 -56 21 -63 0 -8 4 -18 9 -23 5 -6
12 -26 16 -47 6 -30 3 -40 -15 -58 -28 -28 -33 -21 -49 80 -21 140 -23 160
-13 160 5 0 19 -22 31 -49z m307 14 c-3 -9 0 -15 9 -15 8 0 15 -7 15 -16 0
-14 -3 -14 -15 -4 -13 11 -20 9 -40 -10 -31 -30 -33 -8 -2 30 24 31 43 39 33
15z m183 -39 c27 -44 28 -65 1 -41 -11 10 -29 18 -41 19 -28 1 -34 19 -14 40
23 23 31 20 54 -18z m1860 -4 c6 -11 6 -23 0 -33 -8 -12 -12 -11 -24 5 -8 11
-15 26 -15 33 0 19 28 16 39 -5z m602 -59 c-9 -17 -10 -17 -16 0 -4 9 -1 25 6
34 13 15 14 15 17 0 2 -9 -1 -24 -7 -34z m-3431 16 c-7 -11 -14 -18 -17 -15
-3 3 0 12 7 21 18 21 23 19 10 -6z m-986 -14 c3 -13 16 -34 29 -46 18 -18 19
-21 4 -15 -10 3 -29 6 -42 6 -17 0 -24 7 -28 27 -10 51 25 78 37 28z m3343 3
c-3 -8 -6 -5 -6 6 -1 11 2 17 5 13 3 -3 4 -12 1 -19z m-2957 8 c0 -3 -4 -8
-10 -11 -5 -3 -10 -1 -10 4 0 6 5 11 10 11 6 0 10 -2 10 -4z m4298 -23 c27
-72 30 -91 19 -106 -36 -46 -96 58 -62 109 20 31 30 30 43 -3z m-4237 -19 c9
-11 2 -9 -18 6 -18 13 -33 25 -33 27 0 8 38 -17 51 -33z m3179 -123 c-6 -84
-18 -180 -26 -214 -14 -61 -14 -61 -8 63 4 69 8 139 10 155 6 51 28 155 31
151 2 -2 -1 -72 -7 -155z m-490 94 c7 -9 9 -19 5 -23 -4 -4 -10 -1 -12 6 -7
18 -23 15 -23 -5 0 -12 -3 -14 -10 -7 -13 13 -2 44 15 44 7 0 18 -7 25 -15z
m-2163 -37 c6 16 33 16 33 -1 0 -18 -21 -37 -41 -37 -22 0 -31 13 -23 35 6 13
9 14 16 3 7 -10 11 -10 15 0z m2146 -75 c-1 -32 -7 -74 -12 -93 -8 -33 -9 -31
-10 26 -1 65 7 124 18 124 3 0 5 -26 4 -57z m621 -25 c-3 -46 -10 -99 -15
-118 -5 -19 -9 -47 -9 -62 0 -16 -4 -28 -9 -28 -4 0 -7 10 -6 23 1 12 6 74 10
137 7 119 9 130 26 130 6 0 7 -32 3 -82z m93 35 c-3 -10 -5 -2 -5 17 0 19 2
27 5 18 2 -10 2 -26 0 -35z m-3087 27 c8 -5 11 -12 7 -16 -3 -4 -13 -2 -20 4
-8 7 -18 8 -22 4 -5 -4 -5 -1 -1 6 9 14 16 15 36 2z m-70 -4 c0 -2 -7 -9 -15
-16 -13 -11 -14 -10 -9 4 5 14 24 23 24 12z m-640 -16 c0 -5 -4 -10 -10 -10
-5 0 -10 5 -10 10 0 6 5 10 10 10 6 0 10 -4 10 -10z m2747 -62 c-3 -8 -6 -5
-6 6 -1 11 2 17 5 13 3 -3 4 -12 1 -19z m-2094 -20 c-43 -48 -58 -110 -28
-122 21 -8 18 -18 -8 -38 -23 -16 -23 -16 -19 15 3 25 1 29 -7 17 -21 -29 -12
12 15 70 28 61 42 80 57 80 6 0 1 -10 -10 -22z m1982 12 c3 -5 1 -10 -4 -10
-6 0 -11 5 -11 10 0 6 2 10 4 10 3 0 8 -4 11 -10z m2101 -37 c-3 -21 -11 -112
-17 -203 -6 -91 -15 -174 -20 -185 -6 -13 -8 2 -4 45 2 36 7 117 10 180 8 153
14 200 27 200 7 0 8 -14 4 -37z m-949 -15 c-3 -7 -5 -2 -5 12 0 14 2 19 5 13
2 -7 2 -19 0 -25z m-1050 -10 c-3 -7 -5 -2 -5 12 0 14 2 19 5 13 2 -7 2 -19 0
-25z m-2179 -17 c-16 -26 -40 -28 -31 -3 10 29 25 44 35 34 6 -6 5 -18 -4 -31z
m2740 -11 c-7 -11 -17 -20 -22 -20 -5 0 -1 9 9 20 10 11 20 20 22 20 2 0 -2
-9 -9 -20z m477 -37 c-3 -19 -9 -33 -12 -30 -3 3 -2 25 2 49 5 24 10 37 12 30
3 -7 2 -29 -2 -49z m403 44 c8 -9 8 -78 2 -227 -6 -118 -8 -251 -5 -295 4 -75
4 -78 -10 -50 -8 17 -14 36 -15 43 0 19 -20 14 -20 -5 -1 -10 -18 -37 -39 -60
-29 -32 -43 -41 -60 -36 -16 4 -20 11 -16 24 5 16 2 18 -23 13 -22 -4 -31 -2
-36 11 -3 10 -2 23 4 30 8 9 7 14 -2 17 -8 3 -12 20 -11 49 2 24 0 38 -3 32
-11 -26 -32 -13 -30 18 2 47 -15 44 -54 -11 -32 -46 -35 -48 -38 -25 -4 32 23
126 53 185 26 49 109 140 129 140 7 0 27 16 46 35 34 35 33 49 -2 18 -18 -16
-18 -16 -12 3 12 32 36 68 58 86 25 21 69 23 84 5z m-1441 -44 c-3 -10 -5 -4
-5 12 0 17 2 24 5 18 2 -7 2 -21 0 -30z m-2517 -14 c12 -16 20 -32 17 -35 -2
-3 -14 11 -25 31 -26 43 -21 46 8 4z m2507 -46 c-3 -10 -5 -4 -5 12 0 17 2 24
5 18 2 -7 2 -21 0 -30z m58 -1 c-3 -3 -11 0 -18 7 -9 10 -8 11 6 5 10 -3 15
-9 12 -12z m-1954 -39 c-12 -20 -14 -14 -5 12 4 9 9 14 11 11 3 -2 0 -13 -6
-23z m2838 -15 c-12 -24 -24 -45 -26 -48 -10 -10 9 45 23 68 24 37 26 25 3
-20z m101 2 c0 -16 -4 -30 -8 -30 -5 0 -7 14 -4 30 2 17 6 30 8 30 2 0 4 -13
4 -30z m-783 -52 c-3 -7 -5 -2 -5 12 0 14 2 19 5 13 2 -7 2 -19 0 -25z m723
-45 c-11 -17 -11 -17 -6 0 3 10 7 26 7 35 1 15 2 15 6 0 2 -10 -1 -25 -7 -35z
m-2932 -111 c-76 -155 -104 -232 -114 -324 -5 -42 -18 -84 -41 -128 -52 -98
-63 -98 -63 2 0 53 5 91 13 103 7 11 23 52 36 90 28 90 141 319 181 367 17 20
36 35 43 32 9 -3 -8 -47 -55 -142z m2972 138 c0 -5 -2 -10 -4 -10 -3 0 -8 5
-11 10 -3 6 -1 10 4 10 6 0 11 -4 11 -10z m40 -115 c0 -4 8 -14 18 -21 16 -13
16 -13 0 -14 -21 0 -22 -4 -8 -30 7 -13 7 -21 0 -25 -6 -3 -7 -17 -4 -30 4
-15 -6 -64 -24 -122 -17 -54 -34 -110 -38 -125 -3 -16 -11 -28 -16 -28 -6 0
-8 -6 -5 -14 3 -8 -1 -22 -8 -33 -9 -10 -14 -13 -15 -5 0 17 -39 15 -46 -2 -3
-8 -16 -17 -29 -20 -12 -3 -25 -16 -28 -28 -4 -12 -9 -19 -12 -16 -4 4 12 67
34 141 45 147 111 410 111 439 0 13 9 8 35 -21 19 -21 35 -42 35 -46z m-863
-87 c-3 -7 -5 -2 -5 12 0 14 2 19 5 13 2 -7 2 -19 0 -25z m-2052 -15 c-8 -36
-69 -127 -117 -177 -21 -22 -38 -47 -38 -55 0 -9 -8 -25 -17 -36 -15 -19 -15
-19 -8 10 7 30 38 86 122 218 45 70 70 88 58 40z m3878 -38 c-3 -9 -8 -14 -10
-11 -3 3 -2 9 2 15 9 16 15 13 8 -4z m-1836 -47 c-2 -13 -4 -5 -4 17 -1 22 1
32 4 23 2 -10 2 -28 0 -40z m-2387 -9 c0 -5 -4 -9 -10 -9 -5 0 -10 7 -10 16 0
8 5 12 10 9 6 -3 10 -10 10 -16z m3634 -57 c20 -41 28 -123 13 -151 -20 -41
-37 -38 -37 7 0 27 -5 42 -16 46 -8 3 -13 10 -10 14 3 5 6 28 7 53 4 76 16 84
43 31z m-1257 -29 c-3 -10 -5 -2 -5 17 0 19 2 27 5 18 2 -10 2 -26 0 -35z
m-3397 -13 c11 0 23 -7 27 -16 7 -18 -48 -127 -90 -176 l-28 -33 6 85 c3 47 8
104 11 128 5 43 6 43 29 28 14 -9 34 -16 45 -16z m587 -140 c42 -25 47 -50 39
-183 -7 -116 -14 -144 -27 -109 -5 14 -14 20 -23 16 -11 -4 -19 3 -26 22 -6
16 -17 42 -26 58 -12 20 -15 43 -11 81 6 57 27 135 36 135 3 0 21 -9 38 -20z
m233 -96 c-13 -128 -18 -151 -36 -158 -10 -4 -14 2 -14 19 0 36 -12 30 -34
-16 -33 -69 -40 -60 -32 46 7 107 23 185 37 185 5 0 9 -13 9 -29 0 -46 17 -46
25 0 5 28 13 43 28 49 12 4 23 7 25 5 1 -1 -2 -46 -8 -101z m366 64 c-18 -26
-22 -17 -5 14 6 11 13 17 16 15 3 -3 -2 -16 -11 -29z m2033 -203 c0 -11 -13
21 -29 70 -16 50 -29 99 -29 110 0 11 14 -20 30 -70 16 -49 28 -99 28 -110z
m418 148 c-3 -10 -5 -2 -5 17 0 19 2 27 5 18 2 -10 2 -26 0 -35z m688 -3 c3
-5 1 -10 -4 -10 -6 0 -11 5 -11 10 0 6 2 10 4 10 3 0 8 -4 11 -10z m-3175 -23
c0 -2 -10 -12 -22 -23 l-23 -19 19 23 c18 21 26 27 26 19z m2336 -32 c-17 -40
-35 -73 -36 -64 0 12 23 74 33 87 17 21 18 13 3 -23z m285 -55 c5 0 9 -4 9
-10 0 -5 -7 -10 -15 -10 -8 0 -26 -17 -40 -37 -27 -40 -32 -40 -13 2 6 14 15
25 20 25 5 0 6 10 3 22 -6 17 -4 20 10 15 9 -4 21 -7 26 -7z m-3398 -61 c27
-39 32 -63 21 -93 -8 -20 -21 -20 -41 -1 -16 17 -31 135 -17 135 5 -1 21 -19
37 -41z m3068 14 c-12 -20 -14 -14 -5 12 4 9 9 14 11 11 3 -2 0 -13 -6 -23z
m-130 -40 c-12 -20 -14 -14 -5 12 4 9 9 14 11 11 3 -2 0 -13 -6 -23z m530 -20
c-10 -17 -10 -16 -11 3 0 23 13 41 18 25 2 -6 -1 -18 -7 -28z m-614 -5 c-3 -8
-6 -5 -6 6 -1 11 2 17 5 13 3 -3 4 -12 1 -19z m10 -40 c-3 -8 -6 -5 -6 6 -1
11 2 17 5 13 3 -3 4 -12 1 -19z m26 -100 c-3 -16 -9 -28 -14 -28 -4 0 -3 14 3
31 12 36 18 35 11 -3z"/>
<path d="M1960 2263 c-6 -87 -10 -176 -8 -198 l3 -40 14 40 c16 49 28 355 14
355 -6 0 -16 -69 -23 -157z"/>
<path d="M1626 2163 c-6 -14 -5 -15 5 -6 7 7 10 15 7 18 -3 3 -9 -2 -12 -12z"/>
<path d="M2010 2073 c-6 -32 -17 -80 -25 -108 -14 -49 -14 -78 0 -33 4 13 18
46 32 75 32 70 41 123 20 123 -11 0 -19 -17 -27 -57z"/>
<path d="M4727 1916 c-15 -39 -7 -77 20 -101 30 -25 43 -19 43 23 0 16 -4 21
-12 15 -24 -14 -39 -12 -34 5 3 9 2 30 -2 47 -7 24 -9 26 -15 11z"/>
<path d="M4758 3993 c6 -2 18 -2 25 0 6 3 1 5 -13 5 -14 0 -19 -2 -12 -5z"/>
<path d="M4966 3930 c-6 -55 -11 -72 -27 -80 -10 -6 -19 -17 -19 -25 0 -8 -8
-23 -19 -34 -14 -14 -19 -38 -23 -105 -4 -78 -8 -91 -37 -132 -18 -26 -30 -48
-28 -50 2 -2 23 6 48 18 50 26 139 29 166 7 13 -11 17 -11 20 -1 6 15 35 16
51 0 7 -7 12 -26 12 -43 0 -30 15 -55 32 -55 4 0 8 7 8 15 0 19 34 19 50 0 10
-11 10 -44 0 -152 -7 -76 -10 -149 -7 -163 3 -16 5 -9 6 20 5 152 89 243 179
196 17 -9 51 -16 75 -16 24 0 52 -7 63 -15 27 -21 48 -18 90 10 20 14 41 25
46 25 5 0 32 -22 59 -49 57 -57 60 -75 24 -153 -14 -29 -25 -70 -25 -90 0 -50
-16 -88 -37 -88 -10 0 -26 -14 -35 -30 l-17 -30 48 0 c26 0 51 -3 55 -7 3 -4
13 -8 22 -9 26 -4 114 -65 135 -95 26 -37 43 -37 82 4 49 49 86 77 101 77 8 0
18 4 21 10 12 19 44 -15 71 -74 24 -55 26 -67 21 -148 -5 -83 -5 -89 16 -99
45 -23 77 -62 77 -94 0 -17 -5 -36 -11 -42 -8 -8 -4 -21 17 -47 33 -42 44 -44
70 -15 32 36 92 59 121 48 14 -5 28 -7 30 -5 3 3 2 58 -2 122 -7 104 -10 120
-30 138 -20 19 -24 35 -30 116 -9 147 -12 159 -43 172 -32 14 -71 57 -72 78 0
8 -9 40 -20 70 -11 30 -20 65 -20 77 0 30 -21 29 -74 -2 -37 -22 -45 -23 -61
-11 -18 13 -18 19 -8 67 12 60 10 68 -12 49 -12 -10 -16 -9 -21 5 -8 21 10 38
64 59 88 33 162 14 203 -53 19 -31 60 -43 74 -21 11 18 9 155 -2 185 -7 17
-17 49 -23 72 -10 39 -13 42 -48 45 -32 3 -37 6 -37 28 0 18 9 29 30 40 17 8
48 25 69 38 21 13 45 21 52 18 11 -4 14 8 14 53 0 39 -4 58 -12 59 -7 1 -33 6
-58 11 -35 7 -55 6 -91 -7 -44 -15 -49 -15 -87 2 -22 10 -45 15 -51 12 -35
-22 -90 -75 -134 -131 -35 -42 -66 -45 -101 -10 -19 18 -36 25 -66 25 -50 0
-65 22 -109 159 -32 101 -61 139 -79 103 -5 -9 -13 -43 -16 -74 -6 -48 -10
-56 -24 -51 -32 11 -55 38 -78 91 -17 38 -29 52 -44 52 -11 0 -20 -4 -20 -10
0 -5 -11 -20 -25 -34 -20 -20 -25 -35 -25 -75 0 -49 -8 -62 -40 -68 -33 -6
-58 8 -68 37 -6 16 -13 30 -16 30 -3 0 -18 -18 -32 -40 -15 -22 -30 -40 -35
-40 -20 0 -78 68 -84 100 -8 40 -34 100 -44 100 -3 0 -8 -28 -9 -62 -3 -63
-19 -92 -46 -82 -14 5 -36 61 -36 91 0 43 -10 53 -55 53 l-42 0 -7 -70z m759
-181 c-4 -5 -1 -9 5 -9 22 0 98 -71 106 -98 4 -15 6 -31 5 -35 -1 -4 5 -18 14
-30 19 -27 20 -91 1 -106 -8 -7 -29 -9 -54 -5 -35 5 -40 4 -46 -17 -8 -31 -74
-102 -86 -94 -12 8 -3 101 17 176 8 32 13 80 12 107 -2 28 0 48 4 45 5 -3 8 1
6 8 -4 36 2 80 11 74 6 -4 8 -11 5 -16z m-58 -61 c-3 -8 -6 -5 -6 6 -1 11 2
17 5 13 3 -3 4 -12 1 -19z m284 -295 c17 -46 -24 -158 -46 -123 -7 11 3 128
12 143 9 15 24 6 34 -20z m-42 -370 c0 -25 -1 -26 -9 -8 -12 27 -12 35 0 35 6
0 10 -12 9 -27z"/>
<path d="M6461 3866 c-9 -10 -9 -16 -1 -21 6 -4 12 -5 13 -4 2 2 9 12 16 22
11 14 11 17 -2 17 -8 0 -20 -6 -26 -14z"/>
<path d="M4658 3615 l-27 -44 29 -21 c44 -32 50 -26 50 45 0 79 -13 84 -52 20z"/>
<path d="M4460 3576 c0 -8 5 -18 10 -21 6 -3 10 1 10 9 0 8 -4 18 -10 21 -5 3
-10 -1 -10 -9z"/>
<path d="M5062 3447 c-14 -16 -4 -59 12 -54 13 4 21 67 8 67 -5 0 -14 -6 -20
-13z"/>
<path d="M5153 3415 c-3 -9 -3 -18 -1 -21 9 -9 38 8 38 22 0 19 -29 18 -37 -1z"/>
<path d="M5118 3288 c0 -18 0 -44 1 -57 2 -17 -2 -22 -12 -18 -18 7 -31 -33
-17 -47 14 -14 12 -39 -2 -30 -8 5 -9 2 -5 -10 4 -10 7 -20 7 -22 0 -2 7 -4
15 -4 8 0 15 -7 15 -15 0 -8 5 -15 10 -15 14 0 13 43 -2 58 -8 8 -8 15 2 26 7
9 9 23 6 32 -6 15 17 48 27 38 3 -3 7 13 9 35 2 29 0 41 -9 41 -7 0 -13 5 -13
10 0 6 -7 10 -15 10 -10 0 -16 -11 -17 -32z"/>
<path d="M5192 3080 c0 -14 2 -19 5 -12 2 6 2 18 0 25 -3 6 -5 1 -5 -13z"/>
<path d="M5112 2993 c-6 -35 -7 -62 -1 -67 6 -6 9 -3 10 10 0 10 3 40 5 67 6
65 -2 59 -14 -10z"/>
<path d="M4710 3030 c0 -5 5 -10 10 -10 6 0 10 5 10 10 0 6 -4 10 -10 10 -5 0
-10 -4 -10 -10z"/>
<path d="M4743 3015 c-15 -13 -22 -25 -15 -25 6 0 12 -9 12 -19 0 -10 7 -22
16 -25 8 -3 12 -11 8 -17 -4 -8 -3 -9 4 -5 7 4 12 1 12 -9 0 -9 4 -14 10 -10
6 3 6 15 0 29 -6 16 -5 27 3 35 9 9 9 14 -2 20 -11 7 -11 9 0 13 11 4 10 8 -3
21 -16 16 -19 16 -45 -8z"/>
<path d="M4990 2938 c0 -9 -5 -18 -12 -20 -8 -3 -6 -13 8 -31 27 -37 36 -33
28 11 -7 39 -24 68 -24 40z"/>
<path d="M5057 2933 c-4 -3 -7 -11 -7 -17 0 -6 5 -5 12 2 6 6 9 14 7 17 -3 3
-9 2 -12 -2z"/>
<path d="M18 2912 c-32 -6 -19 -20 27 -26 24 -4 47 -11 50 -17 4 -5 11 -9 17
-9 7 0 -1 13 -16 29 -27 28 -38 31 -78 23z"/>
<path d="M757 2883 c-4 -3 -7 -19 -7 -35 0 -40 24 -31 28 10 3 30 -6 41 -21
25z"/>
<path d="M5750 2860 c14 -11 35 -30 46 -40 12 -11 25 -20 28 -20 15 0 -7 21
-52 51 -26 17 -36 21 -22 9z"/>
<path d="M5412 2800 c-7 -11 -12 -27 -12 -35 0 -10 -5 -13 -12 -9 -7 4 -8 3
-4 -4 11 -18 14 -15 31 25 17 40 16 52 -3 23z"/>
<path d="M3145 2699 c-4 -6 -5 -12 -2 -15 2 -3 7 2 10 11 7 17 1 20 -8 4z"/>
<path d="M5462 2645 c0 -16 2 -22 5 -12 2 9 2 23 0 30 -3 6 -5 -1 -5 -18z"/>
<path d="M5324 2632 c3 -15 10 -61 17 -102 15 -94 33 -119 26 -35 -11 113 -19
154 -34 159 -11 5 -13 0 -9 -22z"/>
<path d="M5286 2625 c4 -8 8 -15 10 -15 2 0 4 7 4 15 0 8 -4 15 -10 15 -5 0
-7 -7 -4 -15z"/>
<path d="M3462 2518 c-15 -19 -26 -98 -14 -98 12 0 18 16 28 73 7 39 3 45 -14
25z"/>
<path d="M6424 2377 c-8 -23 4 -107 17 -107 12 0 12 90 -1 110 -8 12 -10 12
-16 -3z"/>
<path d="M3385 2330 c-4 -17 -5 -34 -2 -36 2 -3 7 10 11 27 8 42 0 50 -9 9z"/>
<path d="M6219 2193 c-5 -15 -9 -43 -7 -62 3 -31 5 -27 14 27 11 67 9 78 -7
35z"/>
<path d="M6151 2194 c0 -11 3 -14 6 -6 3 7 2 16 -1 19 -3 4 -6 -2 -5 -13z"/>
<path d="M6276 1963 c-9 -9 -7 -33 3 -33 12 0 22 28 12 34 -5 3 -11 3 -15 -1z"/>
<path d="M3636 1834 c-5 -14 -4 -15 9 -4 17 14 19 20 6 20 -5 0 -12 -7 -15
-16z"/>
<path d="M3800 1823 c1 -27 53 -55 85 -47 14 3 25 10 25 15 0 8 -4 9 -25 9 -3
0 -21 7 -41 15 -42 17 -44 18 -44 8z"/>
<path d="M4170 1732 c0 -17 4 -34 10 -37 6 -4 7 6 3 27 -8 44 -13 48 -13 10z"/>
<path d="M4120 1730 c0 -18 -3 -19 -22 -10 -23 11 -23 11 1 -9 32 -29 49 -27
43 4 -6 32 -22 43 -22 15z"/>
<path d="M3887 1613 c-2 -10 -4 -54 -5 -98 0 -66 1 -74 9 -45 8 31 11 160 3
160 -1 0 -5 -8 -7 -17z"/>
<path d="M3683 1435 c0 -8 4 -12 9 -9 5 3 6 10 3 15 -9 13 -12 11 -12 -6z"/>
<path d="M3705 1420 c-3 -5 -1 -10 4 -10 6 0 11 5 11 10 0 6 -2 10 -4 10 -3 0
-8 -4 -11 -10z"/>
<path d="M3871 1404 c0 -11 3 -14 6 -6 3 7 2 16 -1 19 -3 4 -6 -2 -5 -13z"/>
<path d="M3887 1383 c-2 -5 -10 -30 -17 -56 -9 -35 -10 -51 -2 -59 12 -12 16
1 26 80 6 39 3 53 -7 35z"/>
<path d="M5753 1004 c-9 -24 5 -119 27 -171 23 -59 26 -29 5 54 -8 32 -16 75
-17 96 -1 40 -5 46 -15 21z"/>
<path d="M6381 944 c0 -21 -2 -50 -6 -64 -3 -14 -9 -42 -12 -62 -3 -21 -9 -35
-14 -33 -18 12 -21 -87 -5 -152 15 -64 15 -68 -4 -100 -15 -26 -17 -38 -9 -51
9 -14 6 -35 -9 -90 -11 -40 -19 -72 -17 -72 1 0 22 25 45 55 23 30 45 55 49
55 3 0 7 -44 8 -98 1 -53 5 -126 8 -160 6 -61 8 -63 22 -42 15 21 20 80 9 98
-8 13 -27 223 -21 233 3 4 21 -1 40 -12 l35 -21 -1 169 c0 92 -3 161 -6 153
-7 -16 -28 -40 -36 -40 -3 0 -9 15 -12 33 -4 17 -10 37 -14 42 -12 17 -12 67
0 81 9 11 7 15 -5 20 -10 4 -15 13 -12 20 3 7 1 16 -5 19 -5 4 -7 9 -5 13 2 4
-2 16 -10 27 -13 17 -14 16 -13 -21z m73 -304 c4 -31 3 -40 -4 -30 -5 8 -10
30 -10 49 0 45 6 37 14 -19z"/>
<path d="M796 908 c-3 -13 -5 -36 -5 -53 1 -21 4 -15 10 20 8 52 6 72 -5 33z"/>
<path d="M5791 924 c-1 -6 6 -35 15 -65 9 -30 22 -90 29 -134 8 -47 13 -66 14
-45 1 54 -17 155 -39 208 -10 26 -19 42 -19 36z"/>
<path d="M1341 788 c-20 -79 -86 -273 -120 -357 -35 -82 -35 -85 -21 -76 30
19 94 186 145 375 28 106 28 110 17 110 -5 0 -14 -24 -21 -52z"/>
<path d="M781 774 c0 -11 3 -14 6 -6 3 7 2 16 -1 19 -3 4 -6 -2 -5 -13z"/>
<path d="M6207 686 c-4 -10 -2 -24 3 -32 6 -7 10 -18 9 -26 -1 -7 3 -26 9 -41
7 -16 12 -38 12 -49 0 -12 3 -19 6 -15 7 6 -12 127 -25 161 -7 19 -8 19 -14 2z"/>
<path d="M3201 434 c-39 -34 -41 -38 -26 -53 15 -15 17 -15 28 0 7 9 24 18 39
21 25 5 29 1 43 -43 9 -26 23 -50 32 -53 22 -9 23 -7 13 44 -5 25 -12 62 -15
83 -6 36 -7 38 -24 23 -22 -20 -31 -20 -31 -1 0 23 -12 18 -59 -21z"/>
<path d="M3094 298 c-17 -13 -29 -28 -27 -34 2 -6 -7 -26 -19 -45 -47 -71 -62
-109 -50 -121 16 -16 15 -85 0 -91 -7 -3 80 -6 193 -6 189 -1 207 1 212 17 2
9 8 26 13 36 6 16 4 18 -9 13 -30 -11 -53 6 -118 88 -84 105 -140 165 -154
165 -6 0 -25 -10 -41 -22z"/>
<path d="M6279 258 c-35 -84 -108 -129 -176 -107 -21 6 -44 13 -51 15 -7 2
-10 8 -7 14 3 5 2 10 -3 10 -6 0 -18 -35 -27 -77 -10 -43 -21 -86 -26 -95 -9
-17 5 -18 241 -18 l251 0 -12 23 c-22 43 -65 79 -126 107 -60 27 -86 49 -43
35 32 -10 23 4 -12 18 l-33 14 37 4 c21 3 35 3 33 1 -7 -8 28 -61 43 -67 8 -3
17 -4 19 -2 8 9 -68 157 -81 157 -7 0 -20 -14 -27 -32z"/>
<path d="M5784 213 c3 -32 8 -93 12 -136 l6 -78 61 3 62 3 19 88 c22 102 18
112 -45 111 -33 -1 -47 5 -76 32 -20 19 -38 34 -40 34 -2 0 -2 -26 1 -57z"/>
<path d="M3946 191 c-3 -5 -3 -50 1 -100 5 -71 9 -91 21 -91 11 0 13 8 8 31
-3 17 -6 62 -6 100 0 62 -9 85 -24 60z"/>
<path d="M3896 164 c-3 -9 -6 -37 -7 -62 0 -36 -3 -42 -9 -27 -5 11 -9 36 -9
55 -1 24 -4 31 -12 23 -7 -7 -7 -22 1 -50 7 -21 10 -50 8 -63 l-5 -25 -10 25
-11 25 -10 -25 c-14 -35 -8 -40 51 -40 l52 0 -3 78 c-2 42 -5 83 -7 90 -6 17
-22 15 -29 -4z"/>
<path d="M5123 155 c-3 -9 0 -36 7 -61 10 -34 10 -51 2 -69 l-12 -25 97 0 97
0 -57 58 c-31 32 -57 63 -57 70 0 7 -6 12 -14 12 -7 0 -19 7 -26 15 -16 19
-29 19 -37 0z"/>
<path d="M5090 149 c0 -5 5 -7 10 -4 6 3 10 8 10 11 0 2 -4 4 -10 4 -5 0 -10
-5 -10 -11z"/>
</g>
</svg>
